<svg width="28" height="16" viewBox="0 0 28 16" fill="none" xmlns="http://www.w3.org/2000/svg">
<path fill-rule="evenodd" clip-rule="evenodd" d="M27.358 1.02723C27.5516 0.435737 27.358 0.000244141 26.4305 0.000244141H23.368C22.5887 0.000244141 22.2294 0.376154 22.0345 0.791064C22.0345 0.791064 20.4771 4.25334 18.2709 6.5023C17.5569 7.15445 17.2326 7.36137 16.8429 7.36137C16.6481 7.36137 16.3553 7.15445 16.3553 6.56188V1.02723C16.3553 0.316572 16.1406 0.000244141 15.492 0.000244141H10.676C10.1895 0.000244141 9.8967 0.329572 9.8967 0.64265C9.8967 1.31539 11.0004 1.47139 11.1135 3.36502V7.47945C11.1135 8.38185 10.935 8.54543 10.5454 8.54543C9.50704 8.54543 6.98124 5.06691 5.48209 1.08681C5.1916 0.312239 4.8976 0.000244141 4.11478 0.000244141H1.04999C0.174998 0.000244141 0 0.376154 0 0.791064C0 1.52988 1.03832 5.20015 4.83577 10.0545C7.3674 13.3694 10.9315 15.1666 14.1783 15.1666C16.1255 15.1666 16.3658 14.768 16.3658 14.0801V11.5744C16.3658 10.776 16.5501 10.6167 17.1673 10.6167C17.6223 10.6167 18.4004 10.8247 20.2181 12.4226C22.2947 14.3173 22.6365 15.1666 23.8055 15.1666H26.868C27.743 15.1666 28.1816 14.768 27.9296 13.9793C27.652 13.195 26.6603 12.0565 25.3455 10.7056C24.6315 9.93641 23.5605 9.10767 23.235 8.69276C22.7812 8.16085 22.9107 7.92361 23.235 7.4502C23.235 7.4502 26.9683 2.65545 27.3568 1.02723H27.358Z" fill="white" fill-opacity="0.8"/>
</svg>
