<svg width="28" height="28" viewBox="0 0 28 28" fill="none" xmlns="http://www.w3.org/2000/svg">
<path d="M20.412 16.7799C20.0611 16.6022 18.3522 15.7684 18.0329 15.6494C17.7135 15.5356 17.4816 15.4761 17.2489 15.827C17.0214 16.1691 16.3511 16.9522 16.1464 17.1806C15.9416 17.409 15.7404 17.4265 15.3947 17.2716C15.0439 17.094 13.923 16.7291 12.5921 15.5356C11.5526 14.6107 10.8605 13.4715 10.6549 13.1206C10.4501 12.7741 10.6321 12.5781 10.8054 12.4049C10.9646 12.2456 11.1562 12.0041 11.3339 11.7941C11.5028 11.5841 11.557 11.4432 11.6804 11.2157C11.7941 10.9699 11.7355 10.7782 11.6489 10.605C11.5622 10.4318 10.8649 8.71412 10.5735 8.02987C10.2952 7.35087 10.0039 7.4375 9.7895 7.4375C9.58912 7.41912 9.35637 7.41912 9.1245 7.41912C8.89262 7.41912 8.51375 7.50575 8.19437 7.83825C7.875 8.18913 6.97287 9.02737 6.97287 10.7231C6.97287 12.4232 8.2215 14.0682 8.39475 14.3141C8.57237 14.5416 10.8509 18.0416 14.3465 19.5457C15.1804 19.8966 15.8279 20.1066 16.3336 20.2799C17.1675 20.5441 17.9287 20.5074 18.5299 20.4207C19.1949 20.3114 20.5896 19.5773 20.8819 18.7574C21.1785 17.9323 21.1785 17.2489 21.0919 17.094C21.0053 16.9347 20.7777 16.8481 20.4269 16.6932L20.412 16.7799ZM14.0726 25.375H14.0542C11.9849 25.375 9.93913 24.8141 8.15238 23.7659L7.73325 23.5156L3.35825 24.6549L4.53425 20.398L4.25163 19.9605C3.09616 18.1233 2.48316 15.9971 2.48325 13.8267C2.48325 7.47425 7.68337 2.2925 14.0814 2.2925C17.1806 2.2925 20.0882 3.5 22.2757 5.6875C23.3549 6.75377 24.2108 8.02426 24.7937 9.42485C25.3766 10.8254 25.6748 12.3281 25.6707 13.8451C25.662 20.1932 20.4662 25.375 14.077 25.375H14.0726ZM23.9391 4.02412C21.2774 1.45337 17.7774 0 14.0542 0C6.37525 0 0.1225 6.22562 0.118125 13.8766C0.118125 16.3196 0.756 18.7031 1.9775 20.8127L0 28L7.392 26.0724C9.43977 27.1764 11.7287 27.7571 14.0551 27.7629H14.0595C21.7429 27.7629 27.9956 21.5373 28 13.881C28 10.1763 26.5554 6.68937 23.9216 4.06875L23.9391 4.02412Z" fill="white" fill-opacity="0.8"/>
</svg>
